# xmcd
#
# Track frame offsets:
#       150
#       17227
#       31107
#
# Disc length: 734 seconds
#
# Revision: 0
# Processed by: cddbd v1.4PL0 Copyright (c) Steve Scherf et al.
# Submitted via: CD-DA_X-Tractor v0.21
#
DISCID=1802dc03
DTITLE=The Mavericks - I've Got This Feeling
DYEAR=1900
DGENRE=
TTITLE0=I've Got This Feeling
TTITLE1=She Does
TTITLE2=Save a Prayer (Live)
EXTD=
EXTT0=
EXTT1=
EXTT2=
PLAYORDER=
